<svg width="228" height="180" viewBox="0 0 228 180" fill="none" xmlns="http://www.w3.org/2000/svg">
<path d="M155 105L228 178L227 180H83.5L79.5 175.5V169.5L83.5 164.5H130.5L133.5 161V154L129 150.5H55L50.5 146.5V138L55 133.5H149L152 130V124L148 120.5H30.5L24.5 115V108.5L28.5 105H155Z" fill="#C4C4C4"/>
<path d="M121 70.5L137.5 87.5L136 88.5H82.5L78 86.5L76 79.5L78 74L82.5 70.5H121Z" fill="#C4C4C4"/>
<path d="M101 38L105.5 54L103.5 55.5H4.5L1.5 53L0 50V45L1.5 42L4.5 38H101Z" fill="#C4C4C4"/>
<path d="M130.5 3.5L116 18.5H51L46 15.5L44.5 13V8L46 5.5L51 0.5H130.5V3.5Z" fill="#C4C4C4"/>
</svg>
